<?xml version="1.0" standalone="no"?>
<!DOCTYPE svg PUBLIC "-//W3C//DTD SVG 20010904//EN"
 "http://www.w3.org/TR/2001/REC-SVG-20010904/DTD/svg10.dtd">
<svg version="1.0" xmlns="http://www.w3.org/2000/svg"
 width="1200.000000pt" height="1200.000000pt" viewBox="0 0 1200.000000 1200.000000"
 preserveAspectRatio="xMidYMid meet">
<metadata>
Created by potrace 1.11, written by Peter Selinger 2001-2013
</metadata>
<g transform="translate(0.000000,1200.000000) scale(0.100000,-0.100000)"
fill="#000000" stroke="none">
<path d="M4912 8357 l-832 -832 -358 358 c-196 196 -361 357 -365 357 -5 0
-512 -503 -1127 -1118 l-1119 -1119 34 -34 34 -34 -550 -550 -549 -551 535
-534 c295 -294 537 -536 539 -538 2 -1 249 243 549 543 300 300 549 545 554
545 4 0 238 -230 518 -510 281 -281 526 -527 546 -546 l37 -36 357 357 358
357 836 -836 837 -837 719 720 c396 396 725 721 732 723 7 2 188 -172 403
-387 l390 -390 728 728 727 727 493 -492 492 -492 745 745 745 745 -739 740
c-407 406 -745 739 -751 739 -6 0 -165 -155 -355 -344 l-344 -344 -867 866
c-477 477 -870 867 -874 867 -3 0 -118 -112 -256 -249 l-250 -249 -859 860
c-473 473 -865 863 -870 868 -7 6 -310 -290 -843 -823z"/>
</g>
</svg>
